<mxfile host="app.diagrams.net" modified="2024-06-27T00:05:02.462Z" agent="Mozilla/5.0 (X11; Linux x86_64; rv:109.0) Gecko/20100101 Firefox/115.0" etag="oiU9lAjjuPPB2KXn4HLg" version="24.5.2" type="device">
  <diagram name="Page-1" id="70qw56A--3L_OB82kuiK">
    <mxGraphModel dx="936" dy="716" grid="1" gridSize="10" guides="1" tooltips="1" connect="1" arrows="1" fold="1" page="1" pageScale="1" pageWidth="850" pageHeight="1100" math="0" shadow="0">
      <root>
        <mxCell id="0" />
        <mxCell id="1" parent="0" />
        <mxCell id="2" value="Client" style="shape=umlLifeline;perimeter=lifelinePerimeter;whiteSpace=wrap;container=1;dropTarget=0;collapsible=0;recursiveResize=0;outlineConnect=0;portConstraint=eastwest;newEdgeStyle={&quot;edgeStyle&quot;:&quot;elbowEdgeStyle&quot;,&quot;elbow&quot;:&quot;vertical&quot;,&quot;curved&quot;:0,&quot;rounded&quot;:0};size=65;fillColor=#b0e3e6;strokeColor=#0e8088;" parent="1" vertex="1">
          <mxGeometry width="150" height="434" as="geometry" />
        </mxCell>
        <mxCell id="3" value="Server" style="shape=umlLifeline;perimeter=lifelinePerimeter;whiteSpace=wrap;container=1;dropTarget=0;collapsible=0;recursiveResize=0;outlineConnect=0;portConstraint=eastwest;newEdgeStyle={&quot;edgeStyle&quot;:&quot;elbowEdgeStyle&quot;,&quot;elbow&quot;:&quot;vertical&quot;,&quot;curved&quot;:0,&quot;rounded&quot;:0};size=65;fillColor=#b1ddf0;strokeColor=#10739e;" parent="1" vertex="1">
          <mxGeometry x="209" width="150" height="434" as="geometry" />
        </mxCell>
        <mxCell id="4" value="Target Services" style="shape=umlLifeline;perimeter=lifelinePerimeter;whiteSpace=wrap;container=1;dropTarget=0;collapsible=0;recursiveResize=0;outlineConnect=0;portConstraint=eastwest;newEdgeStyle={&quot;edgeStyle&quot;:&quot;elbowEdgeStyle&quot;,&quot;elbow&quot;:&quot;vertical&quot;,&quot;curved&quot;:0,&quot;rounded&quot;:0};size=65;fillColor=#bac8d3;strokeColor=#23445d;" parent="1" vertex="1">
          <mxGeometry x="418" width="150" height="434" as="geometry" />
        </mxCell>
        <mxCell id="5" value="HTTP GET Request" style="verticalAlign=bottom;endArrow=block;edgeStyle=elbowEdgeStyle;elbow=vertical;curved=0;rounded=0;" parent="1" edge="1">
          <mxGeometry relative="1" as="geometry">
            <Array as="points">
              <mxPoint x="188.4" y="150" />
            </Array>
            <mxPoint x="75.10000000000005" y="150" as="sourcePoint" />
            <mxPoint x="283.9" y="150" as="targetPoint" />
          </mxGeometry>
        </mxCell>
        <mxCell id="6" value="HTTP GET Request" style="verticalAlign=bottom;endArrow=block;edgeStyle=elbowEdgeStyle;elbow=vertical;curved=0;rounded=0;" parent="1" edge="1">
          <mxGeometry relative="1" as="geometry">
            <Array as="points">
              <mxPoint x="397.4" y="256" />
            </Array>
            <mxPoint x="284.1" y="256" as="sourcePoint" />
            <mxPoint x="492.9" y="256" as="targetPoint" />
          </mxGeometry>
        </mxCell>
        <mxCell id="7" value="Raw HTML data" style="verticalAlign=bottom;endArrow=block;edgeStyle=elbowEdgeStyle;elbow=vertical;curved=0;rounded=0;dashed=1;dashPattern=2 3;" parent="1" edge="1">
          <mxGeometry relative="1" as="geometry">
            <Array as="points">
              <mxPoint x="400.4" y="290" />
            </Array>
            <mxPoint x="492.9" y="290" as="sourcePoint" />
            <mxPoint x="284.1" y="290" as="targetPoint" />
          </mxGeometry>
        </mxCell>
        <mxCell id="8" value="SSR Response" style="verticalAlign=bottom;endArrow=block;edgeStyle=elbowEdgeStyle;elbow=vertical;curved=0;rounded=0;dashed=1;dashPattern=2 3;" parent="1" edge="1">
          <mxGeometry relative="1" as="geometry">
            <Array as="points">
              <mxPoint x="191" y="370" />
            </Array>
            <mxPoint x="283.5" y="370" as="sourcePoint" />
            <mxPoint x="75.03488372093028" y="370" as="targetPoint" />
          </mxGeometry>
        </mxCell>
        <mxCell id="9" value="NextJS SSR" style="fillColor=#fad9d5;strokeColor=#ae4132;" parent="1" vertex="1">
          <mxGeometry x="209" y="80" width="150" height="30" as="geometry" />
        </mxCell>
        <mxCell id="Y0z5nVc8tFgQkvjTNX6Q-9" value="Cached" style="rhombus;whiteSpace=wrap;html=1;fillColor=#d0cee2;strokeColor=#56517e;" vertex="1" parent="1">
          <mxGeometry x="244.4" y="169" width="80" height="60" as="geometry" />
        </mxCell>
        <mxCell id="Y0z5nVc8tFgQkvjTNX6Q-11" value="     SSR Cached Response" style="verticalAlign=bottom;endArrow=block;edgeStyle=elbowEdgeStyle;elbow=vertical;curved=0;rounded=0;dashed=1;dashPattern=2 3;exitX=-0.012;exitY=0.497;exitDx=0;exitDy=0;exitPerimeter=0;" edge="1" parent="1" source="Y0z5nVc8tFgQkvjTNX6Q-9">
          <mxGeometry relative="1" as="geometry">
            <Array as="points">
              <mxPoint x="191.4" y="199" />
            </Array>
            <mxPoint x="240.4" y="199" as="sourcePoint" />
            <mxPoint x="75.4" y="199" as="targetPoint" />
          </mxGeometry>
        </mxCell>
        <mxCell id="Y0z5nVc8tFgQkvjTNX6Q-12" value="Process with cheerio" style="fillColor=#fad9d5;strokeColor=#ae4132;" vertex="1" parent="1">
          <mxGeometry x="209" y="310" width="150" height="30" as="geometry" />
        </mxCell>
      </root>
    </mxGraphModel>
  </diagram>
</mxfile>
